<svg width="3048" height="3048" viewBox="0 0 3048 3048" fill="none" xmlns="http://www.w3.org/2000/svg">
<mask id="mask0_9_42" style="mask-type:alpha" maskUnits="userSpaceOnUse" x="0" y="0" width="3048" height="3048">
<path fill-rule="evenodd" clip-rule="evenodd" d="M1524 3048C2365.68 3048 3048 2365.68 3048 1524C3048 682.318 2365.68 0 1524 0C682.318 0 0 682.318 0 1524C0 2365.68 682.318 3048 1524 3048ZM1524.45 1560.9C1544.58 1560.9 1560.9 1544.58 1560.9 1524.45C1560.9 1504.32 1544.58 1488 1524.45 1488C1504.32 1488 1488 1504.32 1488 1524.45C1488 1544.58 1504.32 1560.9 1524.45 1560.9Z" fill="#D9D9D9"/>
</mask>
<g mask="url(#mask0_9_42)">
<circle cx="1524" cy="1524" r="1524" fill="black"/>
<circle cx="1524" cy="1524" r="500" fill="#EEEE77"/>
<path fill-rule="evenodd" clip-rule="evenodd" d="M408.559 980.01C528.035 739.276 724.385 543.446 965.502 424.627L963.738 421.036C721.792 540.263 524.774 736.78 404.913 978.357L408.559 980.01ZM2046.8 2627.06L2045.03 2623.47C2312 2492.39 2524.26 2266.97 2638.35 1990.69L2641.99 1992.34C2527.52 2269.47 2314.59 2495.57 2046.8 2627.06ZM360.909 958.412C485.308 706.534 690.326 501.591 942.259 377.286L940.496 373.694C687.733 498.408 482.047 704.038 357.263 956.76L360.909 958.412ZM2069.84 2673.99L2068.08 2670.4C2346.02 2534.1 2567.17 2299.78 2686.45 2012.49L2690.1 2014.14C2570.43 2302.27 2348.61 2537.29 2069.84 2673.99ZM303.486 932.384C433.943 667.218 649.484 451.456 914.488 320.721L912.725 317.13C646.891 448.273 430.681 664.722 299.84 930.732L303.486 932.384ZM2097.61 2730.56L2095.85 2726.96C2386.86 2584.24 2618.53 2339.09 2743.87 2038.52L2747.52 2040.17C2621.8 2341.59 2389.46 2587.42 2097.61 2730.56ZM256.09 910.902C391.546 634.767 615.773 410.076 891.567 274.033L889.803 270.441C613.18 406.893 388.285 632.271 252.445 909.249L256.09 910.902ZM2120.53 2777.24L2118.77 2773.65C2420.57 2625.62 2660.93 2371.54 2791.27 2060L2794.91 2061.65C2664.19 2374.04 2423.17 2628.8 2120.53 2777.24ZM238.773 903.053C376.055 622.91 603.456 394.956 883.191 256.973L881.428 253.382C600.863 391.773 372.794 620.414 235.127 901.4L238.773 903.053ZM2128.91 2794.3L2127.14 2790.71C2432.89 2640.74 2676.42 2383.4 2808.59 2067.85L2812.23 2069.5C2679.68 2385.9 2435.48 2643.92 2128.91 2794.3ZM221.456 895.203C360.564 611.053 591.138 379.836 874.816 239.914L873.053 236.323C588.545 376.653 357.303 608.557 217.81 893.551L221.456 895.203ZM2137.28 2811.36L2135.52 2807.77C2445.21 2655.86 2691.91 2395.26 2825.9 2075.7L2829.55 2077.35C2695.17 2397.75 2447.8 2659.04 2137.28 2811.36ZM186.823 879.505C329.582 587.34 566.503 349.596 858.065 205.796L857.184 204C565.207 348.005 327.951 586.092 185 878.679L186.823 879.505ZM2153.15 2843.69L2152.27 2841.89C2469.84 2686.1 2722.89 2418.97 2860.54 2091.4L2862.36 2092.22C2724.52 2420.22 2471.14 2687.69 2153.15 2843.69Z" fill="white" style="mix-blend-mode:hard-light"/>
</g>
</svg>
